<svg preserveAspectRatio="none" width="100%" height="100%" overflow="visible" style="display: block;" viewBox="0 0 14 36" fill="none" xmlns="http://www.w3.org/2000/svg">
<g id="Isolation_Mode" clip-path="url(#clip0_518_541)">
<path id="Vector" d="M10.7669 0.487533C11.5923 0.68935 12.3561 1.01329 13.053 1.5049C13.8116 2.03997 14.122 2.69303 13.9534 3.67314C13.5474 6.04319 13.2431 8.43084 12.8947 10.8102C12.8454 11.1455 12.7724 11.4798 12.9276 11.8048C13.1424 12.256 13.0766 12.7021 12.944 13.1616C12.722 13.9316 12.536 14.7141 12.1022 15.4034C11.9675 15.6176 11.8627 15.838 11.8205 16.0978C11.396 18.7225 10.9448 21.343 10.5315 23.9687C10.2036 26.0531 9.8922 28.1406 9.62802 30.2333C9.55299 30.8284 9.3361 31.232 8.86943 31.5994C7.44579 32.7213 6.11672 33.9498 4.99322 35.3863C4.88941 35.5188 4.78045 35.6492 4.65916 35.7651C4.33331 36.0756 3.93346 36.0849 3.6734 35.7351C3.39895 35.3667 3.15431 34.9651 2.95387 34.5501C2.02054 32.6137 1.11393 30.6628 0.179567 28.7264C-0.016762 28.3196 -0.0352642 27.9222 0.0397725 27.4958C0.312166 25.9579 0.58456 24.421 0.847702 22.8809C1.21775 20.7179 1.60115 18.5569 1.93419 16.3876C2.05343 15.6155 2.29293 14.8186 1.84682 14.0455C1.75123 13.8799 1.7687 13.6305 1.78309 13.4235C1.86532 12.2871 1.98559 11.1538 2.24051 10.0412C2.28573 9.84149 2.3546 9.59724 2.49851 9.47925C2.98779 9.07872 2.99396 8.52813 3.02479 7.98684C3.09983 6.63519 3.30336 5.29906 3.55725 3.97431C3.73919 3.02215 3.98691 2.08137 4.38368 1.1882C4.72803 0.416121 5.31084 0.0155916 6.15372 0.00213718C6.48985 -0.00303761 6.82494 0.00213718 7.16106 0.00213718C8.38221 0.0186965 9.58177 0.196709 10.768 0.487533H10.7669ZM6.09924 0.751447C5.62744 0.755587 5.2944 1.00294 5.10938 1.41382C4.90277 1.87438 4.70747 2.34632 4.57487 2.83275C4.08148 4.63047 3.8317 6.46959 3.71143 8.32734C3.68162 8.78893 3.82656 8.94832 4.30556 8.86449C5.47942 8.6575 6.63992 8.76617 7.81378 8.85724C9.14902 8.96074 10.3619 9.32918 11.4505 10.1116C11.5533 10.1851 11.6561 10.2586 11.7619 10.3258C12.0683 10.5194 12.244 10.4573 12.2975 10.1313C12.3653 9.71522 12.4239 9.2971 12.4846 8.88001C12.7343 7.16716 12.9862 5.45533 13.2288 3.74144C13.2637 3.49202 13.2719 3.23638 13.2606 2.98489C13.2483 2.71476 13.0807 2.52226 12.8752 2.36081C12.7549 2.26663 12.4887 2.3163 12.4537 2.45085C12.4116 2.6123 12.3756 2.77686 12.3571 2.94349C12.2594 3.82424 12.1731 4.70602 12.0724 5.58677C12.0487 5.7948 12.0107 6.00904 11.9315 6.19947C11.8668 6.35264 11.7219 6.47063 11.5266 6.39818C11.4063 6.35368 11.3148 6.2626 11.3241 6.11771C11.3528 5.69751 11.3713 5.27525 11.4207 4.85609C11.5183 4.01778 11.6407 3.1836 11.7393 2.34528C11.8133 1.71189 11.7013 1.52042 11.0743 1.32688C9.82435 0.940845 8.54359 0.728678 7.23199 0.750412C6.85475 0.750412 6.47648 0.748342 6.09924 0.750412V0.751447ZM4.12156 28.4004C4.45872 28.4356 5.06106 28.0102 5.1361 27.6273C5.3386 26.5954 5.51951 25.5584 5.69528 24.5213C6.12289 21.9898 6.54638 19.4583 6.96062 16.9247C7.02847 16.5108 7.05827 16.0875 7.06855 15.6683C7.08089 15.1695 7.00071 15.0877 6.54021 14.9801C5.26048 14.682 5.25739 14.6965 5.04565 16.0171C4.53272 19.2172 4.15343 22.4349 3.75769 25.6505C3.68573 26.2342 3.58089 26.8148 3.51408 27.2536C3.51408 27.8239 3.84609 28.3714 4.12259 28.4004H4.12156ZM3.36503 14.7938C2.9364 14.8372 2.84183 14.9149 2.79146 15.3102C2.29704 19.1954 1.50864 23.032 0.888818 26.8966C0.855925 27.1036 0.801446 27.3095 0.795279 27.5175C0.79014 27.6883 0.862093 27.8487 1.05328 27.9026C1.29484 27.9698 1.53537 28.0506 1.78104 28.0909C2.39058 28.1934 2.69381 27.9543 2.78015 27.3095C3.19543 24.2243 3.60145 21.137 4.02186 18.0518C4.14109 17.1762 4.30453 16.3079 4.43507 15.4334C4.52039 14.8641 4.41863 14.7555 3.79983 14.7679C3.6991 14.7731 3.53155 14.7762 3.36503 14.7938ZM6.29763 25.1889C6.15989 26.021 6.00365 26.849 5.85563 27.679C5.80424 27.9688 5.72303 28.2586 5.82993 28.5515C5.89058 28.7171 6.00673 28.8682 6.17325 28.8816C6.61319 28.9168 7.14667 28.5297 7.32142 28.0961C7.68735 27.1864 7.82817 26.2197 7.94741 25.2624C8.23933 22.9151 8.74197 20.6082 9.2107 18.295C9.3361 17.6751 9.44609 17.052 9.55299 16.429C9.6013 16.1485 9.49029 15.9198 9.22817 15.8122C8.80982 15.6414 8.41819 15.3537 7.90115 15.4665C7.36767 18.7049 6.83625 21.9474 6.29866 25.1879L6.29763 25.1889ZM2.49543 31.8571C2.58588 32.0569 2.74315 32.1904 2.95079 32.2597C3.94682 32.5888 4.97472 32.7575 6.01598 32.8414C6.16297 32.8528 6.35211 32.7782 6.4662 32.6789C7.16209 32.0796 7.84153 31.4618 8.54256 30.8356C8.4151 30.5841 8.31231 30.3554 8.18794 30.1401C7.65754 29.2221 7.64109 29.1859 6.61628 29.5792C6.05299 29.7955 5.65519 29.7448 5.33037 29.2304C5.13199 28.9158 4.87501 28.922 4.57692 29.0824C4.11026 29.3329 3.69601 29.2656 3.34653 28.8506C3.19748 28.6736 3.00115 28.6094 2.78735 28.6902C2.30321 28.8733 1.80982 28.8299 1.07076 28.7015C1.60424 29.8835 2.04829 30.8718 2.49543 31.8582V31.8571ZM11.2984 10.9241C10.4246 10.2265 9.44711 9.78974 8.33595 9.6345C6.87428 9.42957 5.41672 9.36541 3.95813 9.65209C3.06283 9.82803 2.91789 9.96051 2.79249 10.8692C2.75343 11.1517 2.64961 11.4477 2.83052 11.8286C3.33728 11.81 3.80086 11.4954 4.31275 11.4012C4.85343 11.3008 5.38794 11.2397 5.93581 11.2459C6.48162 11.2521 7.02744 11.2294 7.55578 11.4074C8.07076 11.5813 8.5991 11.7251 9.09866 11.9373C9.59821 12.1494 10.0896 12.3989 10.547 12.6918C11.0013 12.9826 11.4094 13.3479 11.9233 13.7474C12.7241 12.5665 12.1299 11.5895 11.2984 10.9251V10.9241ZM2.79249 12.7187C2.69484 12.759 2.58896 12.8739 2.55916 12.9753C2.35666 13.6667 2.6013 14.0093 3.29822 14.0372C4.21613 14.0745 5.13199 14.001 6.05402 14.1573C7.34198 14.3767 8.5919 14.6892 9.77913 15.2419C9.96826 15.3299 10.1605 15.4178 10.3599 15.4799C10.8882 15.6435 11.3693 15.392 11.543 14.8486C11.5749 14.7493 11.5409 14.5899 11.4762 14.506C11.323 14.3084 11.1431 14.1262 10.955 13.9596C9.52215 12.6845 7.83537 12.0346 5.94506 11.9166C4.81129 11.8804 3.80291 12.3047 2.79249 12.7176V12.7187ZM10.7042 16.3462C10.5151 16.3131 10.3671 16.3638 10.3075 16.5511C10.2304 16.7912 10.1574 17.0365 10.1132 17.2839C9.57663 20.2739 8.86738 23.2318 8.51584 26.2559C8.45313 26.7983 8.29073 27.3292 8.16635 27.8632C8.01936 28.4956 8.24653 29.1279 8.77487 29.486C8.81598 29.514 8.95681 29.4778 8.97942 29.4353C9.0339 29.3267 9.05857 29.1973 9.07604 29.0741C9.38852 26.9028 9.67839 24.7283 10.0145 22.5611C10.292 20.7686 10.622 18.9833 10.9283 17.1949C10.9571 17.0293 10.9869 16.8637 11.0075 16.7467C10.9735 16.517 10.9057 16.3824 10.7053 16.3472L10.7042 16.3462ZM3.28588 33.2812C3.33933 33.9291 3.68985 34.4 4.00027 34.8823C4.11437 35.0603 4.29939 35.0117 4.42068 34.8751C4.74961 34.5014 5.06312 34.1133 5.49895 33.5917C4.65196 33.4323 4.02494 33.1601 3.28588 33.2812Z" fill="var(--fill-0, black)"/>
<path id="Vector_2" d="M11.6293 7.91872C11.616 7.85766 11.6139 7.81419 11.5975 7.7759C11.5481 7.65998 11.4988 7.53165 11.3395 7.55545C11.2624 7.56684 11.1555 7.59375 11.1246 7.6486C11.0445 7.79246 10.9787 7.95184 10.9427 8.1133C10.8954 8.32753 10.9108 8.53659 11.176 8.61525C11.3888 8.67838 11.543 8.55626 11.5913 8.27579C11.6129 8.15159 11.618 8.02533 11.6293 7.91872Z" fill="var(--fill-0, black)"/>
</g>
<defs>
<clipPath id="clip0_518_541">
<rect width="14" height="36" fill="white"/>
</clipPath>
</defs>
</svg>
