<svg preserveAspectRatio="none" width="100%" height="100%" overflow="visible" style="display: block;" viewBox="0 0 22 21" fill="none" xmlns="http://www.w3.org/2000/svg">
<g id="Layer_2" clip-path="url(#clip0_518_545)">
<path id="Vector" d="M21.8029 17.6546C21.712 17.6144 21.6132 17.5572 21.5186 17.5311C21.4105 17.5014 21.2848 17.5109 21.1731 17.5084C20.9877 17.5044 20.8037 17.509 20.6184 17.5153C20.2628 17.5273 19.9072 17.5386 19.5515 17.549C18.9714 17.5661 18.3913 17.5783 17.8112 17.5927C17.8141 17.5597 17.817 17.5267 17.8199 17.4937C17.8277 17.4081 17.8188 17.323 17.8137 17.2373C17.8039 17.073 17.7947 16.9086 17.7861 16.7442C17.7692 16.4219 17.7547 16.0996 17.7422 15.7771C17.7174 15.1323 17.7015 14.4871 17.6944 13.8418C17.6874 13.1966 17.69 12.5514 17.6954 11.9062C17.7008 11.261 17.7235 10.6166 17.7383 9.97165C17.7466 9.61022 17.7448 9.2485 17.7525 8.88698C17.7565 8.70308 17.7616 8.51908 17.7673 8.33518C17.7729 8.15215 17.7918 7.96574 17.7716 7.78368C17.761 7.68941 17.7395 7.59611 17.6657 7.52848C17.606 7.47377 17.5389 7.44 17.4583 7.42919C17.2823 7.40556 17.1106 7.51333 17.062 7.68768C17.0108 7.871 17 8.06715 16.9783 8.25626C16.9594 8.42038 16.9411 8.58459 16.9234 8.74891C16.8887 9.07078 16.8552 9.39284 16.8243 9.7151C16.7621 10.3639 16.7407 11.0179 16.7165 11.6691C16.6682 12.9653 16.6708 14.2633 16.7052 15.5598C16.7147 15.9217 16.7272 16.2837 16.7423 16.6454C16.7501 16.8296 16.7586 17.0137 16.7677 17.1977C16.7743 17.3297 16.777 17.4621 16.803 17.5921C16.8047 17.6008 16.8066 17.6094 16.8083 17.6182C15.8519 17.6417 14.8955 17.66 13.9389 17.6723C13.9289 17.5759 13.9114 17.4801 13.8978 17.3903C13.8831 17.2936 13.869 17.1967 13.8551 17.0998C13.7639 16.3302 13.7091 15.5562 13.6508 14.7835C13.6211 14.3899 13.602 13.9972 13.5951 13.6025C13.5881 13.2055 13.5872 12.8086 13.5924 12.4116C13.5982 11.9671 13.6159 11.5233 13.6314 11.0791C13.6394 10.8492 13.4286 10.6491 13.2029 10.651C12.7609 10.6548 12.3181 10.6501 11.8763 10.6623C11.7675 10.6653 11.6577 10.6817 11.5494 10.692C11.4371 10.7027 11.3257 10.712 11.2129 10.7154C10.9917 10.7221 10.7706 10.7278 10.5496 10.7397C10.4274 10.7462 10.306 10.7532 10.1843 10.7662C10.1202 10.7731 10.0561 10.7799 9.99202 10.7868C9.96006 10.7903 9.9278 10.7928 9.89584 10.7963C9.82679 10.8039 9.776 10.8254 9.73283 10.8677C9.72684 10.8721 9.72095 10.8766 9.71497 10.881C9.67112 10.9138 9.64225 10.9479 9.63481 11.0036C9.62834 11.0514 9.64051 11.1123 9.68097 11.1445C9.68822 11.1503 9.69546 11.1561 9.7027 11.1618C9.7168 11.1744 9.71835 11.1735 9.70782 11.1591C9.71593 11.1696 9.72414 11.1802 9.73225 11.1907C9.76113 11.2194 9.79512 11.2392 9.83432 11.2502C9.90376 11.2601 9.91621 11.2616 9.87179 11.2545C9.88106 11.2558 9.89043 11.2571 9.8997 11.2584C9.92143 11.2614 9.94306 11.2643 9.96479 11.2674C10.0454 11.2786 10.126 11.2898 10.2066 11.301C10.3995 11.3275 10.5956 11.3425 10.79 11.3546C10.963 11.3653 11.1362 11.3748 11.3091 11.3866C11.4856 11.3986 11.6624 11.4289 11.8378 11.4509C11.803 11.4462 11.7681 11.4416 11.7332 11.4369C11.8764 11.4582 12.0203 11.4602 12.1647 11.4659C12.2801 11.4705 12.3954 11.4751 12.5108 11.4797C12.5885 11.4828 12.6664 11.4859 12.7441 11.489C12.6943 12.2428 12.6776 13.0003 12.6762 13.7549C12.6754 14.2025 12.669 14.6501 12.6713 15.0977C12.6736 15.5416 12.6987 15.9859 12.7261 16.4289C12.7413 16.6758 12.7637 16.9222 12.7782 17.1691C12.7856 17.2955 12.7927 17.4219 12.8008 17.5482C12.8037 17.5937 12.8079 17.639 12.8128 17.6841C11.6532 17.6945 10.4933 17.7008 9.33352 17.7006C9.3341 17.6616 9.3341 17.6225 9.33439 17.583C9.33526 17.4706 9.33613 17.3581 9.33709 17.2457C9.33883 17.024 9.34057 16.8024 9.34231 16.5806C9.34579 16.1373 9.35081 15.6939 9.34781 15.2506C9.34192 14.3606 9.33603 13.4708 9.33014 12.5808C9.32927 12.4555 9.31846 12.3299 9.3116 12.2049C9.30474 12.0794 9.29895 11.9541 9.28707 11.829C9.27336 11.6845 9.25897 11.541 9.23541 11.3977C9.22527 11.3364 9.21465 11.2753 9.20364 11.2141C9.19041 11.1405 9.15535 11.0716 9.12117 11.0055C9.04662 10.8613 8.8191 10.865 8.74359 11.0055C8.72968 11.0312 8.6755 11.1166 8.68352 11.1341C8.67686 11.1504 8.67821 11.1473 8.68767 11.1249C8.68024 11.1424 8.6729 11.16 8.66546 11.1774C8.66044 11.1948 8.65822 11.2147 8.65474 11.2324C8.642 11.2966 8.63021 11.3609 8.61853 11.4253C8.58975 11.5842 8.57556 11.7455 8.55788 11.9061C8.56223 11.8735 8.56667 11.8408 8.57102 11.8082C8.54118 12.0288 8.53258 12.2527 8.51704 12.4747C8.50332 12.67 8.50506 12.867 8.50072 13.0627C8.49193 13.4546 8.48314 13.8467 8.47435 14.2386C8.45678 15.0226 8.44229 15.8062 8.43611 16.5903C8.43437 16.812 8.43264 17.0336 8.4309 17.2553C8.43003 17.3646 8.42916 17.4738 8.42829 17.583C8.428 17.6217 8.42771 17.6605 8.42742 17.6992C7.63411 17.6967 6.8409 17.6908 6.04769 17.6808C6.07337 17.6379 6.09375 17.5928 6.10611 17.548C6.13837 17.4311 6.11702 17.3073 6.10785 17.1888C6.09559 17.0305 6.0838 16.8722 6.07251 16.714C6.04972 16.3939 6.02876 16.0739 6.00983 15.7536C5.97236 15.1196 5.92833 14.4859 5.90032 13.8513C5.84422 12.5832 5.82741 11.3126 5.83669 10.0434C5.83929 9.68596 5.83398 9.32752 5.82954 8.97015C5.82732 8.79474 5.81911 8.61914 5.81467 8.44373C5.80994 8.25751 5.81747 8.0658 5.79535 7.88036C5.797 7.89271 5.79864 7.90515 5.80038 7.9175C5.78618 7.80625 5.77681 7.69375 5.74871 7.58521C5.73828 7.54507 5.73007 7.50349 5.71762 7.46393C5.69599 7.39562 5.65079 7.34998 5.60415 7.29971C5.53279 7.22253 5.41285 7.23468 5.33975 7.29971C5.30411 7.33136 5.26742 7.35973 5.24269 7.40189C5.21594 7.44762 5.20107 7.50696 5.18301 7.55713C5.15346 7.63905 5.13444 7.7199 5.11532 7.80481C5.07322 7.9915 5.06723 8.19229 5.0483 8.38285C5.0147 8.72015 4.9864 9.05669 4.96757 9.39516C4.93039 10.0632 4.91832 10.7315 4.91282 11.4004C4.90181 12.7435 4.92537 14.0874 4.97192 15.4297C4.98505 15.8073 5.01064 16.185 5.0344 16.5621C5.04627 16.7507 5.05883 16.9394 5.07196 17.1279C5.07853 17.2222 5.08365 17.3167 5.09311 17.4107C5.09929 17.4563 5.10537 17.502 5.11155 17.5477C5.12353 17.5904 5.14033 17.6305 5.16187 17.6677C5.06337 17.6661 4.96477 17.6645 4.86627 17.6628C4.08397 17.6488 3.30167 17.631 2.51956 17.6092C2.12219 17.5981 1.72278 17.5948 1.32521 17.6026C0.921358 17.6105 0.521565 17.5983 0.126601 17.6918C-0.0542714 17.7347 -0.0292602 17.9794 0.126601 18.0338C0.473668 18.1549 0.833578 18.181 1.19725 18.2225C1.55185 18.2629 1.90771 18.293 2.26356 18.3209C2.95866 18.3754 3.65772 18.3989 4.35417 18.4325C5.74794 18.4997 7.14239 18.5547 8.53712 18.5982C11.3401 18.6856 14.144 18.6952 16.948 18.6585C17.7307 18.6483 18.5132 18.6272 19.2957 18.6036C19.694 18.5917 20.0924 18.5786 20.4906 18.5645C20.69 18.5575 20.8895 18.5542 21.088 18.5351C21.1876 18.5256 21.2873 18.5171 21.3867 18.506C21.5468 18.488 21.6661 18.4227 21.8031 18.3482C22.0491 18.2145 22.0822 17.7776 21.8031 17.6539L21.8029 17.6546Z" fill="var(--fill-0, black)"/>
<path id="Vector_2" d="M19.7121 19.6827C19.5705 19.6461 19.4091 19.5942 19.263 19.602C19.1276 19.6092 18.9915 19.6304 18.8566 19.6439C18.5959 19.67 18.3351 19.6947 18.0742 19.7181C17.5519 19.7649 17.03 19.8149 16.5073 19.8563C15.4725 19.9382 14.436 19.9926 13.3985 20.0261C12.3616 20.0597 11.3236 20.0739 10.286 20.0677C9.76205 20.0646 9.23817 20.056 8.71438 20.042C8.20122 20.0282 7.68835 19.9973 7.17518 19.9853C6.58882 19.9717 6.0041 19.9565 5.41831 19.9255C5.1262 19.9101 4.8334 19.9071 4.54099 19.8973C4.23979 19.8874 3.9328 19.8806 3.63692 19.941C3.55261 19.9582 3.48772 20.0444 3.47806 20.1253C3.4687 20.204 3.50307 20.3118 3.584 20.3462C3.64831 20.3734 3.71437 20.4093 3.78081 20.4299C3.83923 20.4482 3.90287 20.4566 3.96264 20.4697C4.02319 20.4829 4.08384 20.4961 4.14448 20.5092C4.17461 20.5158 4.20484 20.5241 4.23516 20.5299C4.33028 20.5421 4.35085 20.5451 4.29696 20.5386C4.31753 20.5416 4.3381 20.5446 4.35867 20.5477C4.61564 20.5856 4.8727 20.6223 5.13006 20.6574C5.67335 20.7316 6.22196 20.7656 6.76718 20.8225C7.80867 20.9313 8.86242 20.9554 9.90884 20.9806C11.9949 21.0311 14.0792 20.9802 16.1622 20.8605C16.7475 20.827 17.3338 20.7919 17.9176 20.7384C18.2099 20.7116 18.5021 20.683 18.794 20.6527C18.94 20.6376 19.086 20.6226 19.2318 20.606C19.2965 20.5987 19.3647 20.598 19.4271 20.58C19.4914 20.5613 19.5622 20.5229 19.6259 20.4951C19.6877 20.4682 19.7469 20.437 19.8068 20.406C20.1118 20.2483 20.0324 19.7657 19.7122 19.6826L19.7121 19.6827Z" fill="var(--fill-0, black)"/>
<path id="Vector_3" d="M2.39953 8.78692C2.42048 8.78306 2.44154 8.7793 2.46249 8.77554C2.51222 8.77148 2.56399 8.76791 2.60812 8.75334C2.70826 8.72025 2.78522 8.64972 2.86692 8.58594C2.93809 8.53027 3.00936 8.4746 3.08053 8.41893C3.22548 8.30556 3.37043 8.19219 3.51547 8.07882C3.80692 7.85093 4.08774 7.60837 4.37271 7.37246C4.94034 6.90249 5.50864 6.43328 6.07251 5.95887C6.63366 5.48677 7.19482 5.01467 7.75608 4.54258C8.31975 4.06836 8.88332 3.59423 9.44699 3.12001C10.0107 2.64579 10.5742 2.17167 11.1379 1.69745C11.2068 1.63946 11.2757 1.58147 11.3447 1.52349C11.3975 1.47901 11.4376 1.40886 11.4624 1.33505C11.4635 1.33621 11.4646 1.33727 11.4657 1.33843C11.5995 1.47283 11.742 1.59778 11.8826 1.72504C12.1663 1.98159 12.4498 2.23815 12.7334 2.4947C13.3009 3.00819 13.8748 3.51405 14.449 4.02002C15.0209 4.52386 15.5929 5.0277 16.1648 5.53154C16.7391 6.0375 17.3134 6.54347 17.8877 7.04943C18.4596 7.55327 19.0316 8.05711 19.6035 8.56095C19.7042 8.64972 19.8075 8.7325 19.9194 8.80689C20.0202 8.87385 20.1934 8.8946 20.3076 8.85764C20.4139 8.8233 20.5008 8.76589 20.5693 8.67722C20.635 8.59231 20.6824 8.48251 20.6775 8.37223C20.6713 8.23349 20.6214 8.12137 20.5299 8.0163C20.4034 7.8709 20.2506 7.75039 20.1057 7.62351C19.963 7.49847 19.8202 7.37343 19.6774 7.24838C19.3895 6.99617 19.1015 6.74406 18.8135 6.49185C18.24 5.98955 17.6665 5.48735 17.093 4.98505C16.5195 4.48276 15.9459 3.98056 15.3724 3.47826C14.7988 2.97586 14.2273 2.47096 13.6471 1.97619C13.3556 1.72755 13.0641 1.47901 12.7725 1.23037C12.6279 1.10706 12.4834 0.98385 12.3388 0.860543C12.1697 0.716396 11.9912 0.583923 11.8148 0.448652C11.7625 0.408514 11.7101 0.368281 11.6577 0.328143C11.6194 0.287234 11.5741 0.258192 11.5219 0.241211C11.4713 0.214678 11.4167 0.202424 11.3583 0.204643C11.2542 0.204643 11.1297 0.250859 11.058 0.328915C10.9838 0.409769 10.9286 0.515902 10.9337 0.628885C10.9343 0.644805 10.9358 0.660628 10.9379 0.676355C10.9112 0.679925 10.8844 0.683495 10.8577 0.687161C10.7729 0.710896 10.6992 0.753832 10.6367 0.815775C10.0726 1.29849 9.5085 1.78129 8.94435 2.264C8.76444 2.41799 8.58444 2.57198 8.40453 2.72597C8.40415 2.60044 8.40376 2.47501 8.40337 2.34949C8.40212 1.9431 8.40106 1.5369 8.39304 1.1306C8.3885 0.900295 8.38396 0.66989 8.37943 0.439582C8.3773 0.334415 8.33471 0.212844 8.25514 0.139902C8.16929 0.061171 8.07224 0.0230597 7.9552 0.0157269C7.74101 0.00241211 7.52412 -0.006175 7.30964 0.00453476C7.06532 0.0166918 6.82255 0.0442863 6.58026 0.0779593C6.46341 0.0942652 6.35719 0.117518 6.25116 0.174154C6.10611 0.251631 6.00249 0.391437 5.95653 0.547452C5.92389 0.658216 5.92456 0.777277 5.92476 0.891804C5.92505 1.00112 5.92524 1.11034 5.92553 1.21966C5.92756 2.0939 5.93432 2.96824 5.93972 3.84249C5.9405 3.96782 5.94127 4.09315 5.94204 4.21858C5.94281 4.34035 5.93866 4.46346 5.9459 4.58503C5.95054 4.66309 5.95305 4.74162 5.95788 4.81987C5.82761 4.93141 5.69734 5.04285 5.56707 5.15438C5.00311 5.637 4.44263 6.12347 3.88253 6.61053C3.60374 6.85289 3.32494 7.09536 3.04625 7.33773C2.90584 7.45978 2.77045 7.58762 2.63361 7.71363C2.49928 7.83723 2.36061 7.95745 2.23005 8.085C2.13068 8.18196 2.10577 8.32196 2.06086 8.44797C2.02851 8.53867 2.06618 8.6504 2.13175 8.71591C2.20591 8.79001 2.30074 8.80487 2.39992 8.78673L2.39953 8.78692ZM6.6468 3.51492C6.65394 2.91064 6.66254 2.30636 6.66804 1.70208C6.66959 1.53497 6.67075 1.36776 6.672 1.20065C6.67297 1.08159 6.66756 0.959729 6.67219 0.839606C6.86147 0.824651 7.05422 0.826581 7.24282 0.830247C7.33726 0.832081 7.43151 0.834396 7.52576 0.837773C7.52219 1.1115 7.51881 1.38522 7.52064 1.65876C7.52335 2.06505 7.52605 2.47135 7.52866 2.87764C7.52943 2.99285 7.5302 3.10795 7.53098 3.22315C7.53146 3.30314 7.53938 3.3782 7.55 3.45742C7.45305 3.54039 7.35609 3.62337 7.25914 3.70635C7.05219 3.8834 6.84524 4.06054 6.6383 4.23759C6.6411 3.99667 6.644 3.75584 6.6468 3.51492Z" fill="var(--fill-0, black)"/>
<path id="Vector_4" d="M9.34501 7.25427C9.34018 7.43971 9.33671 7.62515 9.33468 7.81069C9.33256 8.00289 9.31025 8.20126 9.3539 8.39066C9.38615 8.53066 9.46862 8.64953 9.58083 8.73617C9.70376 8.83101 9.84543 8.86401 9.99839 8.8726C10.0849 8.87742 10.1738 8.86826 10.2604 8.86507C10.3533 8.8617 10.4461 8.85832 10.539 8.85494C10.9073 8.84153 11.2755 8.82812 11.6438 8.81471C12.0633 8.79946 12.4828 8.78412 12.9024 8.76888C12.9998 8.76531 13.0872 8.73578 13.1645 8.67606C13.2328 8.62328 13.3046 8.53992 13.3195 8.45154C13.4576 7.63297 13.5135 6.80108 13.4787 5.97151C13.4703 5.77073 13.4567 5.57013 13.4379 5.37012C13.4267 5.25135 13.4194 5.12882 13.391 5.01284C13.3589 4.88133 13.2861 4.74105 13.1808 4.65334C13.0946 4.58146 13.0288 4.54393 12.9224 4.50485C12.8691 4.48527 12.8147 4.4789 12.7587 4.47137C12.6519 4.457 12.5458 4.45391 12.4381 4.45024C12.2324 4.4431 12.0267 4.43596 11.821 4.42892C11.5933 4.42101 11.3644 4.40567 11.1365 4.40933C11.0208 4.41117 10.9051 4.413 10.7894 4.41493C10.7079 4.41628 10.6255 4.42506 10.5462 4.44465C10.4687 4.46385 10.4002 4.50003 10.3306 4.53804C10.2392 4.58783 10.183 4.69251 10.183 4.79498C10.183 4.9043 10.2416 4.99325 10.3306 5.05192C10.3912 5.09186 10.4468 5.13142 10.5199 5.14859C10.5185 5.14802 10.5172 5.14744 10.5158 5.14686C10.5522 5.16075 10.5892 5.17243 10.6279 5.18092C10.6986 5.19635 10.7749 5.19944 10.8472 5.20668C10.9372 5.21565 11.0272 5.22472 11.1172 5.23369C11.2934 5.25135 11.4708 5.25617 11.6475 5.26495C11.8242 5.27364 12.001 5.28242 12.1777 5.2911C12.308 5.29757 12.4399 5.29911 12.5706 5.30857C12.6065 5.62793 12.6183 5.95231 12.6228 6.27283C12.6279 6.63706 12.6159 7.00148 12.5869 7.36455C12.572 7.55076 12.5523 7.73659 12.5286 7.92184C11.8653 7.95262 11.2021 7.9833 10.539 8.01408C10.4301 8.0191 10.3212 8.02421 10.2124 8.02923C10.1762 8.03087 10.1393 8.03386 10.1022 8.03637C10.0928 7.91982 10.0885 7.80249 10.0828 7.68613C10.0745 7.51352 10.0673 7.34081 10.0615 7.16811C10.0554 6.99222 10.0506 6.81633 10.0471 6.64043C10.0436 6.46792 10.0466 6.29454 10.0366 6.12241C10.0311 6.02651 10.0259 5.9306 10.0212 5.83469C10.0155 5.72104 10.0219 5.59773 9.99801 5.48619C9.98207 5.35333 9.96923 5.22067 9.95899 5.08713C9.95117 4.98573 9.88773 4.90217 9.78314 4.88818C9.69092 4.87583 9.5789 4.93392 9.56065 5.0333C9.52521 5.22646 9.47702 5.41991 9.45346 5.61432C9.43135 5.79639 9.41068 5.97855 9.39117 6.16091C9.39156 6.1583 9.39185 6.1557 9.39223 6.15319C9.37128 6.33323 9.37118 6.5178 9.36384 6.69813C9.35621 6.88358 9.35003 7.06902 9.34521 7.25456L9.34501 7.25427Z" fill="var(--fill-0, black)"/>
<path id="Vector_5" d="M11.6542 14.9489C11.7477 14.9824 11.8656 14.983 11.9607 14.9546C12.0909 14.9156 12.1982 14.8291 12.271 14.7151C12.3273 14.627 12.3527 14.5193 12.3551 14.4158C12.356 14.3797 12.346 14.3248 12.3373 14.2896C12.3203 14.221 12.2734 14.1452 12.2224 14.0944C12.1886 14.0609 12.1475 14.0274 12.1059 14.0049C11.9767 13.9351 11.8239 13.9295 11.6951 14.0049C11.691 14.0073 11.6872 14.0098 11.6833 14.0123C11.6522 14.0135 11.6206 14.0182 11.5864 14.0282C11.4535 14.0675 11.3577 14.1646 11.3049 14.2896C11.2478 14.4247 11.2688 14.5855 11.3465 14.7096C11.4196 14.8263 11.5257 14.903 11.6542 14.9489ZM11.5056 14.2706C11.5056 14.2706 11.5056 14.2703 11.5056 14.2702C11.5058 14.2696 11.5061 14.2692 11.5063 14.2686C11.506 14.2693 11.5058 14.2699 11.5055 14.2706H11.5056ZM11.827 14.5796C11.8232 14.5801 11.8195 14.5806 11.8157 14.5812C11.8195 14.5805 11.8232 14.5799 11.827 14.5796Z" fill="var(--fill-0, black)"/>
</g>
<defs>
<clipPath id="clip0_518_545">
<rect width="22" height="21" fill="white"/>
</clipPath>
</defs>
</svg>
