<svg preserveAspectRatio="none" width="100%" height="100%" overflow="visible" style="display: block;" viewBox="0 0 25 18" fill="none" xmlns="http://www.w3.org/2000/svg">
<g id="Layer_1" clip-path="url(#clip0_519_866)">
<path id="Vector 7" d="M0.5 10L2 0.5L4.5 3L6 4H7L12 1.5L14 1H15L17.5 4V3L18.5 1.5L20.5 1L21 1.5L22 3L24.5 1.5L24 5L22 14.5L19.5 16L17 17.5L16 17L12.5 13.5L11 14.5L6.5 17L5 16.5L0.5 11.5V10Z" fill="var(--fill-0, #FFE762)"/>
<path id="Vector" d="M17.1934 3.2021C17.7308 0.596083 21.4479 -0.457155 22.3805 2.47547C23.2218 2.15604 23.9929 1.24114 24.8633 1.16806C25.1865 1.53121 24.8353 2.16191 24.8315 2.605C24.5249 4.05663 24.1938 5.50337 23.8913 6.95532C23.2474 9.02297 23.0593 13.8435 21.6291 15.1675C20.3858 15.8896 17.5532 18.8091 16.2179 17.784C14.9484 16.8779 14.104 15.5411 13.0933 14.3985C12.7546 14.0095 12.6059 13.9802 12.1217 14.1988C10.3551 14.7029 6.77209 18.4584 5.35424 17.1438C3.45629 15.3776 1.7284 13.3658 0.151552 11.3373C-0.230389 10.2243 0.221373 8.97925 0.292922 7.83432C0.610572 5.41233 0.911631 2.98773 1.24829 0.567371C1.28493 0.246309 1.47435 -0.14164 1.8753 0.0515189C3.35812 0.658077 5.49976 4.21945 6.94042 3.299C9.16258 2.34952 11.2392 1.05875 13.5623 0.343215C15.2201 -0.044408 16.2376 2.21477 17.1934 3.2021ZM1.91228 1.0519C1.54382 4.3617 1.19057 7.56416 0.826947 10.859C0.951726 11.4926 1.80893 11.8522 2.17739 12.3961C3.29453 13.585 4.35428 14.8174 5.48386 15.9963C5.69436 15.1267 5.58582 14.142 5.69332 13.2323C5.71198 12.8558 5.2184 12.7592 4.96781 12.552C3.45283 11.7592 3.36642 9.86347 1.9548 8.96489C1.03537 7.83204 2.7605 6.4783 3.59316 5.74416C4.37917 5.1376 5.26886 5.26257 6.10188 5.73078C6.15891 5.23092 6.2028 4.83742 6.25569 4.35257C4.29276 4.0736 3.38059 2.12341 1.91228 1.0519ZM12.4179 13.2575C12.5375 12.1481 12.7546 10.9373 12.6578 9.84063C12.0474 9.16001 11.9755 8.19715 11.4155 7.4839C10.5611 6.10992 9.16051 5.08736 8.48512 3.623C7.98082 3.83509 7.50348 4.03575 7.02925 4.23511C6.98742 4.75912 6.94733 5.26159 6.90551 5.78658C7.94141 5.65639 9.0658 5.5063 9.8048 6.36508C10.691 7.31815 11.5679 8.67972 10.7816 9.91927C9.81413 11.3415 8.6607 13.5423 6.62449 13.5136C6.51423 14.5251 6.4057 15.5206 6.29129 16.5702C8.46576 15.7225 10.1383 13.9006 12.4182 13.2571L12.4179 13.2575ZM17.3517 10.6103C17.5746 9.40244 17.7319 8.17333 17.9469 6.96283C17.9918 6.69886 17.9725 6.47503 17.8311 6.23685C17.4865 5.65639 17.2048 5.05147 17.1263 4.37671C16.4177 3.34175 15.5066 2.3766 14.6425 1.43822C14.4742 2.00595 13.6169 9.16229 13.666 9.44909C14.8955 9.83639 16.1125 10.2201 17.3513 10.6103H17.3517ZM18.1477 10.9245C19.2997 11.21 21.3491 9.41027 22.545 8.96587C23.423 6.86233 23.6456 4.36627 24.2339 2.12276C23.5961 2.54888 22.7687 3.0047 22.3387 3.62692C22.0037 5.08899 21.1026 6.33865 20.3733 7.64312C19.9461 8.497 19.2199 8.02814 18.6779 7.5237C18.4968 8.68494 18.324 9.793 18.1477 10.9242V10.9245ZM22.5139 9.89512C20.9467 10.3705 19.7311 11.8988 18.0115 11.7947C17.9942 11.9403 17.979 12.0678 17.9628 12.2039C18.3077 12.3644 19.0523 12.3765 18.8604 12.8747C18.681 13.8115 18.6088 15.0611 17.4588 15.3904C17.3517 15.9803 17.248 16.55 17.1332 17.182C21.9308 14.1149 21.5368 15.269 22.5136 9.89512H22.5139ZM13.9045 1.19677C13.8827 1.17393 13.8613 1.15109 13.8395 1.12825C12.3609 1.64867 11.0011 2.42033 9.58911 3.07974C9.25384 3.24354 9.17503 3.45595 9.37758 3.75743C10.5583 5.33925 12.1545 6.67635 12.8748 8.52604C13.3408 6.08121 13.4379 3.62888 13.9045 1.19677ZM6.63694 12.7246C8.10006 13.0594 9.64269 10.5232 10.2109 9.45921C10.596 8.53616 9.86701 7.54915 9.23137 6.88517C8.59607 6.24272 7.6566 6.62545 6.8343 6.64959C6.70814 8.68788 6.68395 10.7036 6.63694 12.7246ZM5.75243 12.2202C5.8537 10.2263 5.95221 8.29014 6.05072 6.35757C4.50118 5.43354 3.30559 7.02319 2.56901 8.14299C2.39273 8.43338 2.39688 8.48983 2.65197 8.7179C3.91462 9.7558 4.15069 11.5037 5.75243 12.2205V12.2202ZM13.1562 13.3674C14.33 14.5035 15.1696 15.8455 16.4412 16.8896C16.5114 16.2769 16.5736 15.7317 16.6338 15.2044C15.9228 14.805 15.0085 14.4079 15.2515 13.4908C15.4077 12.6023 16.163 11.966 17.1384 12.0359C17.165 11.861 17.1909 11.692 17.2172 11.5213C16.0247 11.0042 14.8326 10.5748 13.6038 10.2648C13.45 11.3311 13.3024 12.3563 13.1565 13.3671L13.1562 13.3674ZM19.5358 7.40004C20.3101 6.15299 21.2157 5.06941 21.5382 3.65726C22.1133 1.91916 20.0564 0.625123 18.6637 1.95342C16.7454 3.54991 18.3606 5.85934 19.5358 7.40037V7.40004ZM17.0278 12.7122C15.9411 12.537 15.5692 14.2151 16.7724 14.3104C16.8584 13.7707 16.9414 13.2516 17.0278 12.7122ZM17.8276 12.8914C17.7581 13.3178 17.6925 13.7188 17.6268 14.1201L17.7136 14.143C17.7547 13.8014 18.5117 12.8901 17.8276 12.8914Z" fill="var(--fill-0, black)"/>
<path id="Vector_2" d="M17.3688 6.58763C17.2578 6.82223 17.3194 7.35113 16.9378 7.31916C16.6613 7.22617 16.8856 6.88977 16.8444 6.69009C16.8476 5.92463 16.1531 6.40361 15.7919 6.12268C15.7273 5.97488 15.9046 5.80847 16.0512 5.76018C16.7086 5.50699 17.3446 5.91419 17.3688 6.58731V6.58763Z" fill="var(--fill-0, black)"/>
<path id="Vector_3" d="M16.6292 8.80244C16.6012 9.20866 16.2117 9.16265 16.0095 8.93458C15.7658 8.761 15.5107 8.64876 15.2045 8.79656C14.6621 8.96884 14.8346 8.35837 15.2148 8.26472C15.6904 8.07156 16.484 8.3091 16.6292 8.80244Z" fill="var(--fill-0, black)"/>
<path id="Vector_4" d="M19.7987 8.64913C20.5042 8.64423 20.5398 9.6929 19.8132 9.70498C19.1105 9.72945 19.0842 8.63836 19.7987 8.64913Z" fill="var(--fill-0, black)"/>
<path id="Vector_5" d="M8.79318 9.60768C7.73964 10.3924 6.89661 9.65988 7.62973 9.36721C8.10741 9.28564 8.44062 8.62622 8.95736 8.89279C9.79763 9.27324 9.54081 10.6665 8.79318 9.60768Z" fill="var(--fill-0, black)"/>
<path id="Vector_6" d="M5.02537 8.66834C5.01535 9.08532 4.64619 9.17472 4.54665 8.7672C4.43811 8.35902 4.11113 8.68498 3.85363 8.53847C3.67769 7.79716 4.87052 7.84676 5.02572 8.66834H5.02537Z" fill="var(--fill-0, black)"/>
<path id="Vector_7" d="M19.9383 2.27092C22.3848 2.19523 21.1305 5.44565 19.1952 4.86748C17.5174 4.39339 18.3318 2.0794 19.9383 2.27092ZM20.5719 3.23574C20.5553 2.50193 19.507 2.93621 19.1541 3.24944C18.2657 4.46745 20.6206 4.58296 20.5719 3.23574Z" fill="var(--fill-0, black)"/>
</g>
<defs>
<clipPath id="clip0_519_866">
<rect width="25" height="18" fill="white"/>
</clipPath>
</defs>
</svg>
