<svg preserveAspectRatio="none" width="100%" height="100%" overflow="visible" style="display: block;" viewBox="0 0 22 21" fill="none" xmlns="http://www.w3.org/2000/svg">
<g id="Layer_1" clip-path="url(#clip0_519_654)">
<path id="Vector 9" d="M1.5 11.5L1 11L0.5 10.5L1 8.5L2.5 5L5 3L7 1.5L10.5 0.5H14L17 2L19.5 3.5L21.5 7V9.5L20.5 14.5L17.5 18L14.5 20L12 20.5H9.5L6.5 19.5L4.5 18.5L3 16.5L2 15L1.5 13.5V11.5Z" fill="var(--fill-0, #FFE762)"/>
<path id="Vector" d="M2.92318 7.37148C1.48873 9.64332 0.537605 12.1653 1.53784 14.791C2.36749 16.9643 4.12501 18.7913 6.21853 19.8552C10.3797 21.9679 15.4248 21.096 18.5961 17.7502C21.6614 14.5181 22.9925 9.56246 21.1729 5.41805C19.3534 1.27365 14.6262 -0.434657 10.2401 0.0960289C7.49531 0.427076 4.98051 1.56173 2.99296 3.45957C1.9307 4.47545 1.08295 5.65812 0.607389 7.04043C0.186101 8.26354 -0.266201 10.169 0.19127 11.4199C0.3205 11.7711 0.669419 11.9051 1.01058 11.7458L1.27938 11.6195C1.54559 11.4957 1.54559 11.0534 1.27938 10.9296L1.01058 10.8033L1.26646 11.4199C1.64898 10.4242 1.47064 9.23646 1.71359 8.1852C1.99531 6.95957 2.55358 5.8982 3.39616 4.94802C4.82285 3.33574 6.74578 2.14296 8.8548 1.60469C12.3724 0.707581 16.5956 1.23321 19.0407 4.09892C21.7105 7.23249 21.297 11.9126 19.2707 15.2433C17.0867 18.8343 13.0651 20.8509 8.81345 19.8906C6.58295 19.3852 4.57473 18.1065 3.25142 16.2744C1.24578 13.4996 1.62313 10.3585 3.01881 7.42708C3.04724 7.36643 2.96195 7.31336 2.92576 7.37401L2.92318 7.37148Z" fill="var(--fill-0, black)"/>
<g id="Isolation_Mode">
</g>
<g id="Layer_1_2" clip-path="url(#clip1_519_654)">
<g id="Vector_2">
</g>
<path id="Vector_3" d="M17.9758 16.3493C17.5048 14.9628 16.406 13.5635 15.1933 12.66C14.5804 12.2036 13.8881 11.8432 13.1464 11.6072C12.7579 11.4835 12.3574 11.394 11.9519 11.3374C11.6454 11.2946 10.9849 11.1429 10.6975 11.2637C14.3698 9.72114 16.0249 5.32103 10.9823 4.3137C7.46206 3.33279 5.30976 8.0806 8.38354 9.7619C6.32469 6.39611 9.0963 3.40096 12.6641 5.61089C14.6747 6.87443 12.8616 9.34637 11.3598 10.2459C10.1066 11.0307 8.78923 11.1575 7.62007 9.76129C7.53299 9.65731 7.15881 9.64063 7.1314 9.68347C7.75167 10.6136 8.62384 11.2138 9.94957 11.3966C7.03692 11.7553 4.48806 13.9222 5.15601 16.7285C5.19395 16.8879 5.34335 17.0032 5.51792 17.0101C5.65274 17.017 5.76763 16.9229 5.77917 16.7987C5.77977 16.7919 5.77757 16.785 5.77296 16.7797C5.75286 16.7569 5.74031 16.7278 5.73428 16.6985C4.49624 10.7238 15.6555 9.9483 17.006 16.7092L16.9944 16.9199C16.9869 17.0553 17.4933 17.2387 17.7698 17.1167C18.0348 16.9998 18.0724 16.5852 17.9758 16.3493Z" fill="var(--fill-0, black)"/>
</g>
</g>
<defs>
<clipPath id="clip0_519_654">
<rect width="22" height="21" fill="white"/>
</clipPath>
<clipPath id="clip1_519_654">
<rect width="13" height="13" fill="white" transform="translate(5.51349 4) rotate(2.26372)"/>
</clipPath>
</defs>
</svg>
