<svg preserveAspectRatio="none" width="100%" height="100%" overflow="visible" style="display: block;" viewBox="0 0 29 24" fill="none" xmlns="http://www.w3.org/2000/svg">
<g id="Group 19">
<path id="Vector 8" d="M1.76532 7.91994L3.81588 7.70752L5.7958 7.98973L6.64386 5.5854L8.33997 0.776734L20.0785 3.46142L28.2108 6.6418L24.8193 19.7947L23.6881 20.6434L20.7888 19.7247L20.082 21.1391L13.5059 21.2111L3.95987 20.8594L1.97995 20.5771L1.62613 19.5165L1.76532 7.91994Z" fill="var(--fill-0, #FFE762)"/>
<g id="Group">
<g id="Vector">
</g>
<path id="Vector_2" d="M26.228 5.17068C23.0081 3.81481 19.518 2.72509 16.0539 2.09142C13.7152 1.61764 11.3772 1.14042 9.03941 0.66204C8.44279 0.539987 8.1197 0.692482 7.9087 1.29959C7.22857 3.04538 6.7512 4.84946 6.29078 6.65807C6.41563 6.66224 6.54048 6.66489 6.66555 6.66454C6.83097 6.6641 6.99617 6.65901 7.16123 6.65219C7.52674 5.23781 7.88673 3.82752 8.30623 2.42951C9.26219 3.93356 10.3612 5.31054 11.5028 6.64795C11.7264 6.64996 11.9501 6.65233 12.1737 6.65535C12.3371 6.65757 12.5003 6.65858 12.6635 6.65886C11.2136 5.06062 9.8474 3.39689 8.91836 1.45144C15.0477 2.92505 21.351 3.74216 27.0951 6.47492C25.6528 7.20896 24.1635 7.84156 22.6521 8.42152C22.6538 8.72328 22.6309 9.02949 22.612 9.3329C24.3202 8.58823 25.9843 7.78972 27.7187 6.88559C26.6257 11.0601 25.3157 15.0661 24.1112 19.205C23.4848 17.9314 22.8672 16.6756 22.2541 15.4289C22.2199 16.0638 22.1892 16.6985 22.1197 17.3328C22.4828 18.0939 22.8472 18.858 23.2137 19.6264C22.8146 19.5291 22.4156 19.43 22.0166 19.3292C21.9853 19.5837 21.9522 19.8381 21.9174 20.0922C21.9133 20.1213 21.9097 20.153 21.9057 20.1861C22.6024 20.3796 23.2983 20.5743 23.9928 20.7719C25.2325 21.3329 26.1718 14.4764 26.7278 13.3613C27.2964 11.2295 27.7425 9.06496 28.4555 6.97153C28.8291 5.79171 27.0063 5.73679 26.2281 5.17075L26.228 5.17068Z" fill="var(--fill-0, black)"/>
</g>
<g id="Group_2">
<path id="Vector_3" d="M1.41665 9.5119C1.40947 9.24942 1.22216 8.15539 1.31851 7.91652C1.44221 7.60974 1.87579 7.5564 2.15744 7.50822C2.69003 7.41711 3.22275 7.36061 3.76309 7.3446C4.35526 7.32701 4.94427 7.39163 5.53609 7.39005C6.12941 7.38847 6.71957 7.32694 7.31332 7.34022C8.55726 7.368 9.8004 7.36384 11.0443 7.38078C12.258 7.39737 13.4674 7.34733 14.6808 7.41029C16.3821 7.4986 19.4695 7.50449 20.0446 7.47462C20.5004 7.45093 20.941 7.29958 21.2101 7.77099C21.7607 8.73521 21.4031 9.90427 21.4667 10.945C21.5407 12.1575 21.3707 13.3811 21.2399 14.5874C21.1075 15.8089 21.1177 17.0299 20.9681 18.2494C20.8914 18.8748 20.9674 19.3995 20.8908 20.025C20.8584 20.2894 20.824 20.5537 20.7879 20.8176C20.7607 21.0164 20.7472 21.3333 20.5633 21.4589C20.3986 21.5712 20.0981 21.5164 19.9125 21.5173C19.5883 21.5189 17.8057 21.4949 17.1764 21.4887C16.5904 21.4829 13.8312 21.4531 13.2321 21.4215C12.016 21.3575 10.7971 21.3515 9.57978 21.3303C8.3311 21.3086 7.08386 21.3044 5.83555 21.3442C4.65005 21.382 3.46162 21.376 2.28797 21.1797C1.85705 21.1076 1.53117 21.0477 1.48601 20.5639C1.44947 20.1724 1.50891 19.757 1.50834 19.3634C1.50676 18.3346 1.50066 17.3058 1.49771 16.2771C1.49384 14.9064 1.49348 13.5358 1.47826 12.1652C1.47524 11.8937 1.43345 10.1248 1.41673 9.51176L1.41665 9.5119ZM2.2996 17.5456C2.28696 18.0841 2.23685 19.7359 2.36242 20.1197C2.49065 20.5117 2.98389 20.5074 3.3237 20.5435C3.81564 20.5957 6.86216 20.5898 7.9014 20.5906C9.99145 20.5921 12.0669 20.536 14.1497 20.7191C15.2066 20.812 16.2682 20.7415 17.3276 20.7459C18.1819 20.7495 19.7634 20.7964 19.9709 20.5716C20.0825 20.4507 20.1673 18.8296 20.2743 17.8033C20.3853 16.7382 20.2938 15.6751 20.3928 14.6087C20.4881 13.5823 20.5676 12.5488 20.6194 11.5192C20.6459 10.992 20.6821 9.10941 20.5533 8.72631C20.4031 8.27902 20.1115 8.32397 19.6989 8.275C19.1921 8.21491 17.8905 8.23286 16.8595 8.25016C15.8168 8.26761 13.0244 8.23982 11.9788 8.23336C10.9525 8.22704 9.92317 8.20637 8.89678 8.18899C7.84102 8.17111 6.74398 8.16623 5.68801 8.15941C4.71553 8.15316 3.72094 8.0515 2.75672 8.21792C2.41282 8.2773 2.30872 8.27177 2.22278 8.64059C2.15838 8.91714 2.22529 11.565 2.25753 12.5856C2.27368 13.0979 2.32444 16.4877 2.2996 17.5456Z" fill="var(--fill-0, black)"/>
<path id="Vector_4" d="M14.6211 12.2458C14.6681 11.6976 14.6352 11.1461 14.6209 10.5978C14.6078 10.0942 14.8494 10.1195 15.2278 10.0914C15.7396 10.0535 16.538 10.1537 17.0473 10.0898C17.3714 10.0492 17.8306 10.0005 17.9069 10.4166C18.0004 10.9259 17.9363 11.6079 17.9106 12.122C17.8868 12.5969 17.9788 13.1984 17.8625 13.6624C17.7592 14.0743 17.5319 14.031 17.1026 14.0286C16.625 14.026 16.2438 13.9268 15.5374 14.0358C15.2703 14.077 14.8745 14.1708 14.6948 13.892C14.5709 13.6997 14.5467 13.3923 14.571 13.1822C14.6071 12.8715 14.5943 12.5575 14.621 12.2458H14.6211ZM15.2246 12.688C15.215 12.9517 15.2672 13.2458 15.3827 13.3139C15.6072 13.4463 15.8718 13.3561 16.2648 13.3524C16.8606 13.3468 17.1167 13.5241 17.2645 13.1864C17.3258 13.0464 17.2985 12.3109 17.3228 12.0647C17.3568 11.72 17.3524 11.1711 17.2659 10.8316C17.224 10.6669 16.8353 10.7472 16.5505 10.7657C16.3253 10.7804 16.1173 10.7962 15.6454 10.7561C15.3196 10.7284 15.2449 10.7476 15.2389 11.0835C15.2294 11.6245 15.2441 12.147 15.2245 12.688H15.2246Z" fill="var(--fill-0, black)"/>
<path id="Vector_5" d="M12.1718 17.3502C12.1585 17.7163 12.1879 18.0858 12.1666 18.4505C12.1549 18.6511 12.1273 19.0644 12.0124 19.1459C11.9465 19.1926 11.8988 19.0634 11.8789 18.8521C11.8312 18.3474 11.9042 17.8477 11.8985 17.2034C11.8833 15.4986 11.9147 13.9307 11.9292 12.2931C11.9327 11.9081 11.9542 11.5236 11.9563 11.1386C11.958 10.8286 11.9332 10.5017 11.9538 10.1947C11.9707 9.94236 12.0671 9.83876 12.1792 9.94207C12.2551 10.0121 12.2624 10.5469 12.2547 10.8146C12.2244 11.8561 12.1465 12.8862 12.1945 13.9433C12.2458 15.0743 12.213 16.2174 12.1718 17.3502H12.1718Z" fill="var(--fill-0, black)"/>
<path id="Vector_6" d="M8.69937 15.4555C8.37888 15.4908 8.1212 15.1683 7.82476 15.0678C7.50369 14.9589 7.20293 15.144 6.89371 15.2391C6.78077 15.2738 6.65377 15.3264 6.53954 15.276C6.41921 15.2228 6.35265 15.0603 6.22658 15.0135C5.9338 14.9046 5.61129 15.1976 5.32375 15.2407C5.03577 15.2839 4.72856 15.2187 4.4851 15.0061C4.30145 14.8458 4.09676 14.4762 3.85143 14.6558C3.70439 14.7634 3.60567 15.2047 3.40321 15.1736C3.22149 15.1457 3.25028 14.7737 3.29422 14.6083C3.37155 14.3172 3.62491 14.076 3.84095 13.9958C4.15757 13.8785 4.30468 14.1786 4.52042 14.4153C4.77882 14.6987 5.10757 14.7829 5.43044 14.6693C5.70118 14.574 6.05585 14.208 6.34382 14.3215C6.57565 14.4129 6.6738 14.6814 6.9487 14.6524C7.23244 14.6223 7.47755 14.4155 7.76969 14.4777C8.0456 14.5364 8.28403 14.7437 8.54896 14.848C8.87599 14.9767 9.12627 14.859 9.4006 14.6093C9.63746 14.3936 9.85952 14.2254 10.1484 14.38C10.2633 14.4416 10.5562 14.6367 10.4907 14.8564C10.4437 15.014 10.3188 14.9543 10.2306 14.945C10.0456 14.9255 9.86426 14.9586 9.68793 15.0385C9.52897 15.1104 9.40534 15.2289 9.26067 15.3353C9.06905 15.4761 8.90715 15.4326 8.69945 15.4555H8.69937Z" fill="var(--fill-0, black)"/>
<path id="Vector_7" d="M4.19072 10.186C4.75482 10.1785 5.27728 11.1286 5.85675 10.6731C6.06007 10.5133 6.16245 10.219 6.37432 10.0691C6.65368 9.87143 7.00161 9.91623 7.29087 10.0463C7.57138 10.1724 7.82991 10.4028 8.13576 10.4334C8.27246 10.4472 8.41634 10.4214 8.53926 10.3423C8.66993 10.2582 8.77209 10.0709 8.92272 10.0373C9.13983 9.98888 9.24121 10.2507 9.39018 10.3825C9.67636 10.6355 9.93461 10.3935 10.2448 10.3987C10.4309 10.4018 10.6613 10.5505 10.5026 10.7983C10.3549 11.0289 9.90065 11.1158 9.6783 11.1105C9.52588 11.1068 9.40174 11.0586 9.27495 10.9579C9.15563 10.863 9.07198 10.7458 8.91296 10.7679C8.78537 10.7855 8.67703 10.9027 8.56108 10.9608C8.40019 11.0414 8.23506 11.0659 8.06426 11.0314C7.49298 10.9159 6.98136 10.1771 6.42056 10.7549C6.21329 10.9685 6.05096 11.2791 5.7772 11.3745C5.53101 11.4603 5.27549 11.3214 5.05579 11.1981C4.73566 11.0185 4.42298 10.7174 4.05295 10.7328C3.89952 10.7392 3.74265 10.7997 3.6109 10.8967C3.49308 10.9835 3.37175 11.182 3.22658 11.2031C2.82811 11.2612 3.09203 10.6459 3.23448 10.5001C3.50127 10.2271 3.85795 10.1906 4.19065 10.1862L4.19072 10.186Z" fill="var(--fill-0, black)"/>
<path id="Vector_8" d="M15.0247 15.3288C15.8257 15.3896 16.6272 15.2606 17.4286 15.3082C17.8142 15.331 18.1941 15.3153 18.5776 15.3255C18.8828 15.3337 19.0794 15.7646 18.7011 15.8371C18.3986 15.8951 18.048 15.8431 17.7411 15.8442C17.3325 15.8457 16.9239 15.8474 16.5152 15.8464C15.7243 15.8446 14.924 15.8445 14.1369 15.7547C14.013 15.7406 13.8341 15.7277 13.7445 15.6217C13.6464 15.5054 13.6947 15.3406 13.8202 15.2705C13.9615 15.1917 14.157 15.2536 14.3056 15.2705C14.5442 15.2978 14.7853 15.3106 15.0247 15.3288Z" fill="var(--fill-0, black)"/>
<path id="Vector_9" d="M13.5054 17.0818C13.4869 16.8114 13.943 16.8321 14.1102 16.8367C14.4524 16.8462 14.7934 16.8786 15.1363 16.888C16.1523 16.9158 17.15 16.9235 18.1611 16.8296C18.3591 16.8112 18.9003 16.7911 18.833 17.1385C18.7837 17.3928 18.3245 17.3852 18.1346 17.3925C17.1236 17.431 16.1179 17.4298 15.1062 17.4124C14.7822 17.4067 13.5387 17.5672 13.5054 17.0818Z" fill="var(--fill-0, black)"/>
<path id="Vector_10" d="M10.4083 16.8985C10.3883 17.2956 9.93894 17.016 9.75995 17.029C9.45439 17.0513 9.20368 17.3557 8.90278 17.3951C8.65028 17.4281 8.58279 17.2116 8.38793 17.0867C8.136 16.9254 7.87538 17.1361 7.6381 17.2462C7.3502 17.3797 7.05957 17.3817 6.76276 17.2976C6.40874 17.1972 6.1423 17.2133 5.78914 17.3405C5.53182 17.4332 5.23954 17.5708 4.98682 17.386C4.75571 17.2172 4.67645 16.8494 4.41202 16.7276C4.15047 16.6071 3.9368 16.8187 3.75595 17.0232C3.62514 17.1711 3.37816 17.4323 3.23041 17.1543C3.04826 16.8117 3.57761 16.3983 3.76966 16.2645C3.9452 16.1422 4.13633 16.0786 4.3403 16.1165C4.64514 16.1732 4.79204 16.4581 5.02501 16.662C5.52256 17.0976 6.10583 16.5923 6.64932 16.6931C7.02238 16.7623 7.30489 16.841 7.67407 16.6766C7.96714 16.5462 8.24449 16.3902 8.55464 16.54C8.69938 16.6099 8.78956 16.7002 8.95361 16.6873C9.11049 16.675 9.27705 16.5668 9.42905 16.5164C9.56481 16.4714 9.71889 16.4093 9.86061 16.4319C10.0323 16.4593 10.4221 16.6246 10.4083 16.8983L10.4083 16.8985Z" fill="var(--fill-0, black)"/>
<path id="Vector_11" d="M9.6654 12.9616C9.36321 12.9812 9.07524 12.9463 8.78325 13.0562C8.46038 13.1778 8.13845 13.3326 7.79792 13.1797C7.57514 13.0796 7.43894 12.8333 7.21882 12.7313C6.91139 12.5888 6.6176 12.8296 6.34872 12.9723C6.10469 13.1019 5.84665 13.2301 5.57002 13.2221C5.27408 13.2135 5.01734 13.0422 4.7537 12.9154C4.50507 12.7958 4.22643 12.6766 3.95289 12.7691C3.77785 12.8284 3.58659 13.1121 3.40308 13.1079C3.18396 13.1028 3.1304 12.8014 3.21174 12.6161C3.31513 12.3806 3.60138 12.2036 3.82251 12.1463C4.4859 11.9744 4.951 12.6751 5.58697 12.638C6.15911 12.6046 6.71194 11.9471 7.28523 12.1271C7.52115 12.2011 7.63401 12.434 7.83052 12.5702C8.09444 12.753 8.38356 12.6116 8.6449 12.4948C8.97415 12.3476 9.24396 12.3315 9.59562 12.3424C9.82264 12.3493 10.1877 12.1762 10.3985 12.2892C10.6108 12.403 10.5399 12.7164 10.3747 12.8504C10.1838 13.0054 9.88567 12.9473 9.66548 12.9616H9.6654Z" fill="var(--fill-0, black)"/>
<path id="Vector_12" d="M13.5437 18.768C13.3997 18.3068 14.2098 18.4516 14.4494 18.4602C14.9608 18.4786 15.4745 18.4739 15.9862 18.4749C16.5297 18.4759 17.0732 18.4735 17.6167 18.4776C17.8846 18.4796 18.63 18.3613 18.7768 18.6638C18.99 19.103 18.2667 19.0278 18.0445 19.0211C17.6441 19.009 17.242 19.0209 16.8412 19.017C16.2054 19.0108 15.5692 18.9997 14.934 18.969C14.6133 18.9536 14.291 18.9365 13.9727 18.8942C13.8909 18.8834 13.576 18.8714 13.5436 18.7678L13.5437 18.768Z" fill="var(--fill-0, black)"/>
<path id="Vector_13" d="M5.65578 18.3825C5.95 18.4301 6.17752 18.649 6.41609 18.6821C6.57749 18.7045 6.86898 18.4843 7.11122 18.4574C7.39726 18.4256 7.55542 18.6308 7.77275 18.594C8.07602 18.5426 8.07472 18.396 8.42882 18.4291C8.63509 18.4484 8.95329 18.6173 8.9469 18.8454C8.93814 19.1578 8.61556 18.9954 8.36492 19.0141C8.14709 19.0304 8.06316 19.1795 7.85015 19.2203C7.56052 19.2758 7.40085 19.1021 7.13348 19.0482C6.73702 18.9682 6.5067 19.6469 6.15519 19.2943C6.02833 19.167 5.92178 18.905 5.74035 18.9257C5.62131 18.9392 5.48734 19.0578 5.37441 19.0997C5.10352 19.2003 4.80708 19.0942 4.99324 18.7293C5.15701 18.4083 5.37627 18.3374 5.65578 18.3825Z" fill="var(--fill-0, black)"/>
</g>
</g>
</svg>
