<svg preserveAspectRatio="none" width="100%" height="100%" overflow="visible" style="display: block;" viewBox="0 0 111 92" fill="none" xmlns="http://www.w3.org/2000/svg">
<g id="Layer_1" clip-path="url(#clip0_517_394)">
<path id="Vector 10" d="M42.55 31.28L16.65 11.04L18.5 9.2L72.15 5.52H107.3L109.15 9.2L59.2 80.96L53.65 53.36L37 64.4L42.55 31.28Z" fill="var(--fill-0, #FFE762)"/>
<path id="Vector" d="M18.7176 8.56991C26.1301 7.95739 33.5426 7.31558 40.9577 6.74035C51.2322 5.94141 61.4987 4.95872 71.789 4.49534C79.6428 4.14381 87.5257 4.50599 95.3954 4.49534C99.7319 4.49001 104.068 4.31957 108.402 4.33555C109.285 4.33822 110.807 4.69507 110.913 5.15313C111.14 6.13049 110.892 7.43276 110.376 8.33023C108.225 12.0826 106.042 15.8322 103.609 19.4008C100.995 23.2357 97.9852 26.7936 95.3399 30.6072C91.5874 36.0213 88.0278 41.5739 84.352 47.0439C81.0038 52.032 77.6133 56.9933 74.2387 61.9627C71.4323 66.0959 68.6126 70.2184 65.8167 74.3569C63.9854 77.0652 62.2096 79.8136 60.3069 82.4714C60.1853 82.6418 58.8006 82.3249 58.6791 81.9893C58.0818 80.3329 57.6379 78.6099 57.2811 76.8815C55.8594 69.9814 54.4984 63.0706 53.082 56.1678C52.971 55.6218 52.6143 55.1292 52.3711 54.6099C51.9272 54.9401 51.47 55.257 51.0366 55.6032C47.6541 58.3196 44.2689 61.0333 40.9022 63.771C39.6919 64.7537 38.5953 65.8882 37.3162 66.7617C36.7745 67.1318 35.8892 67.0999 35.181 67.028C35.0409 67.0146 34.8348 65.9494 34.9405 65.4274C36.8802 55.8615 38.8965 46.3116 40.8256 36.743C41.6131 32.8389 41.0793 32.2264 37.9372 29.9467C34.9062 27.747 32.2345 25.0466 29.2801 22.727C24.4309 18.9161 19.4734 15.2437 14.5925 11.4727C14.1036 11.0945 13.8288 10.4341 13.4535 9.90413C13.9847 9.54461 14.4735 9.01465 15.0576 8.85752C16.2335 8.54061 17.4623 8.42876 18.67 8.23169C18.6832 8.34354 18.6991 8.45539 18.7123 8.56724L18.7176 8.56991ZM39.1026 59.2224C39.8796 58.3382 40.6697 57.4647 41.4334 56.5726C45.8043 51.47 47.3026 43.9947 54.3531 41.0519C56.602 40.1119 58.539 38.4101 60.6134 37.0466C66.2845 33.3209 71.9291 29.5579 77.6265 25.8748C81.8468 23.1451 86.1436 20.5353 90.385 17.8349C92.6815 16.3728 94.9277 14.8336 97.195 13.3289C93.7385 14.2636 90.3982 15.3342 87.1029 16.5353C82.2273 18.3142 77.4046 20.237 72.5237 22C68.0365 23.6218 63.4595 24.9933 59.0041 26.6924C54.546 28.3915 50.1884 30.3622 45.7858 32.213C44.2636 32.8522 43.3625 33.8136 43.048 35.6245C41.8457 42.506 40.4239 49.3502 39.1449 56.2184C38.9626 57.1931 39.1264 58.2344 39.1291 59.2463C38.9996 59.2943 38.8701 59.3422 38.7432 59.3875C38.7617 59.4248 38.7829 59.4621 38.8014 59.4993C38.9018 59.4061 39.0049 59.3129 39.1053 59.2197L39.1026 59.2224ZM104.652 11.968C103.587 12.3862 103.125 12.5007 102.731 12.735C96.8991 16.229 90.977 19.5846 85.2742 23.281C75.375 29.6991 65.6265 36.3515 55.7828 42.8575C54.1945 43.9068 53.4916 45.1451 54.0518 47.0253C54.3875 48.1545 54.7469 49.2836 54.9741 50.4368C56.3033 57.217 57.6167 63.9973 58.8905 70.7883C59.2578 72.7403 59.4586 74.7244 59.7837 76.6871C59.8471 77.0786 60.1246 77.4328 60.3043 77.8056C60.6029 77.534 60.9675 77.3103 61.1948 76.988C63.5282 73.6831 65.9013 70.4048 68.1422 67.0386C72.262 60.8522 76.2682 54.5885 80.3801 48.3968C85.6601 40.4447 91.0008 32.5353 96.3018 24.5965C98.9761 20.5912 101.616 16.5672 104.655 11.9707L104.652 11.968ZM104.185 7.29694C104.129 7.07057 104.076 6.84421 104.021 6.61784C103.403 6.61784 102.784 6.5992 102.166 6.62051C97.9032 6.76431 93.6354 6.84155 89.3782 7.08922C84.965 7.34487 80.5651 7.91212 76.1493 8.07457C70.0423 8.29827 63.9061 7.99201 57.8176 8.41811C48.5922 9.06258 39.4039 10.2104 30.1865 10.9987C27.1078 11.2623 23.9922 11.0626 20.8951 11.1212C20.2529 11.1318 19.6161 11.3422 18.9765 11.4594C19.3677 11.9494 19.6795 12.5433 20.1604 12.9161C27.2453 18.4048 34.3909 23.8109 41.4228 29.3662C42.9265 30.5539 44.1553 30.5886 45.799 29.8775C51.359 27.4754 56.9164 25.0519 62.569 22.8815C73.9216 18.5273 85.3324 14.3356 96.722 10.0772C99.2087 9.1478 101.698 8.2237 104.187 7.29694H104.185ZM42.7151 58.7297C42.8974 58.9268 43.0771 59.1212 43.2594 59.3182C45.4317 57.478 47.4876 55.4621 49.8131 53.8482C51.9008 52.3995 52.2549 50.7403 51.4145 48.5566C51.285 48.2184 51.1106 47.8961 50.9574 47.5659C50.6402 47.8056 50.2359 47.984 50.0166 48.2929C47.5669 51.7603 45.1436 55.2463 42.7151 58.7297ZM105.025 11.3129H105.155C105.139 11.2543 105.125 11.1984 105.11 11.1398C105.073 11.1611 105.022 11.1744 105.004 11.2064C104.991 11.2304 105.017 11.2783 105.025 11.3129Z" fill="var(--fill-0, #1D1D1D)"/>
<path id="Vector_2" d="M49.6017 75.9174C49.9109 76.1092 50.3866 76.245 50.4473 76.4847C50.5213 76.7723 50.3364 77.2623 50.0985 77.4727C48.9939 78.4447 47.9052 79.47 46.6711 80.2557C44.8741 81.4008 42.9846 82.4075 41.0767 83.3529C40.6671 83.5553 40.009 83.249 39.4673 83.1798C39.5175 82.8389 39.4435 82.3755 39.6364 82.1784C42.4323 79.3182 45.6087 77.0573 49.6017 75.9174Z" fill="var(--fill-0, #1D1D1D)"/>
<path id="Vector_3" d="M11.8204 15.763C12.2353 16.0053 12.8616 16.3702 13.4852 16.735C13.0148 17.0333 12.5524 17.3502 12.0714 17.6298C10.0075 18.8282 7.98595 20.1172 5.85073 21.1691C4.34973 21.9095 2.6981 22.3569 1.08875 22.8442C0.792782 22.9321 0.367322 22.5779 0 22.4288C0.3039 21.787 0.441315 20.8122 0.940768 20.5539C4.05111 18.9481 7.2381 17.494 10.4119 16.016C10.7395 15.8642 11.1439 15.8775 11.8177 15.763H11.8204Z" fill="var(--fill-0, #1D1D1D)"/>
<path id="Vector_4" d="M51.6814 84.1145C51.2507 84.8682 51.1529 85.2916 50.8913 85.462C47.6752 87.5579 44.4433 89.6272 41.1903 91.6671C40.8309 91.8935 40.3314 91.8935 39.8981 92C40.0487 91.5925 40.0751 91.012 40.3684 90.8016C43.6743 88.4234 47.0093 86.0879 50.3733 83.7949C50.5742 83.6565 51.0684 83.9521 51.6841 84.1145H51.6814Z" fill="var(--fill-0, #1D1D1D)"/>
<path id="Vector_5" d="M22.0182 22.7803C21.0642 23.4301 20.8158 23.6458 20.5304 23.7843C18.7176 24.6818 16.9153 25.6085 15.0576 26.4048C14.714 26.5513 14.0058 26.2743 13.723 25.9601C13.5592 25.779 13.7733 24.8921 14.0534 24.727C15.7499 23.7257 17.4676 22.7297 19.2804 21.984C19.8116 21.7656 20.6731 22.3595 22.0182 22.7803Z" fill="var(--fill-0, #1D1D1D)"/>
<path id="Vector_6" d="M42.9423 74.3595C42.7204 73.6298 42.3821 72.9268 42.4957 72.8415C44.2848 71.51 46.1293 70.2557 47.9871 69.0253C48.0082 69.012 48.5737 69.7683 48.5632 69.7763C46.8138 71.241 45.0379 72.6711 42.9423 74.3595Z" fill="var(--fill-0, #1D1D1D)"/>
<path id="Vector_7" d="M28.6802 27.4328C29.0951 27.8003 29.5972 28.0399 29.6897 28.3888C29.761 28.6578 29.3937 29.2037 29.0845 29.3822C27.8398 30.1012 26.5714 30.8123 25.2395 31.3316C24.8326 31.4913 24.1851 31.0306 23.6487 30.8522C23.9235 30.474 24.1191 29.9601 24.4864 29.739C25.805 28.9427 27.1845 28.245 28.6828 27.4328H28.6802Z" fill="var(--fill-0, #1D1D1D)"/>
<path id="Vector_8" d="M69.3023 0C69.6511 0.11984 70 0.23968 70.3514 0.359521C70.3197 0.479361 70.288 0.601864 70.2563 0.721704C69.8678 0.636485 69.4794 0.551265 69.0909 0.466045C69.1623 0.311585 69.231 0.154461 69.3023 0Z" fill="var(--fill-0, #1D1D1D)"/>
<path id="Vector_9" d="M23.8046 1.72836C23.7597 1.73635 23.6989 1.76298 23.6751 1.74434C23.6434 1.71771 23.6381 1.65646 23.6222 1.61119C23.6989 1.6032 23.7755 1.59254 23.8495 1.58455C23.8337 1.63249 23.8204 1.68309 23.8046 1.73103V1.72836Z" fill="var(--fill-0, #1D1D1D)"/>
<path id="Vector_10" d="M8.37177 8.10919C8.28721 8.15712 8.15508 8.25033 8.13658 8.23169C8.05466 8.1518 8.00709 8.03728 7.94631 7.93609C8.03881 7.91212 8.14451 7.85087 8.2185 7.8775C8.28721 7.90146 8.31892 8.02397 8.36913 8.10652L8.37177 8.10919Z" fill="var(--fill-0, #1D1D1D)"/>
<path id="Vector_11" d="M50.8384 26.8256C50.8754 26.8549 50.9124 26.8815 50.9494 26.9108C50.8754 26.9108 50.8014 26.9108 50.7275 26.9108C50.7645 26.8842 50.8014 26.8549 50.8384 26.8282V26.8256Z" fill="var(--fill-0, #1D1D1D)"/>
<path id="Vector_12" d="M31.5395 10.5965L31.5104 10.6977L31.4259 10.6285L31.5395 10.5965Z" fill="var(--fill-0, #1D1D1D)"/>
</g>
<defs>
<clipPath id="clip0_517_394">
<rect width="111" height="92" fill="white"/>
</clipPath>
</defs>
</svg>
